<svg version="1.1" id="Layer_1" xmlns="http://www.w3.org/2000/svg" xmlns:xlink="http://www.w3.org/1999/xlink" x="0px" y="0px"
	 width="100%" viewBox="0 0 1024 352" enable-background="new 0 0 1024 352" xml:space="preserve">
<path fill="#000000" opacity="1.000000" stroke="none" 
	d="
M182.823853,293.152039 
	C155.926819,293.151184 129.506042,293.151184 103.085274,293.151184 
	C102.827423,292.561096 102.569565,291.971008 102.311707,291.380920 
	C176.911789,232.270844 251.511871,173.160782 326.073547,114.081139 
	C323.884308,110.370628 321.098816,111.417564 318.803741,111.415375 
	C263.303955,111.362297 207.804153,111.389206 152.304367,111.364815 
	C150.211731,111.363899 148.004181,111.915092 145.926910,110.631683 
	C145.988144,107.895561 148.305298,106.703812 149.782623,105.084076 
	C163.482178,90.063942 177.301743,75.153267 191.005920,60.137314 
	C193.170181,57.765896 195.442734,56.612572 198.779785,56.615112 
	C292.946075,56.686760 387.112427,56.659973 481.278778,56.661537 
	C482.754303,56.661560 484.229858,56.814404 485.663300,56.893600 
	C486.355621,59.162010 484.559967,59.632111 483.500610,60.468781 
	C431.463989,101.566231 379.398987,142.627792 327.365051,183.728653 
	C282.652924,219.046158 237.951569,254.377487 193.330032,289.809235 
	C190.238541,292.264008 187.169540,293.607635 182.823853,293.152039 
z"/>
<path fill="#000000" opacity="1.000000" stroke="none" 
	d="
M421.971466,305.167755 
	C425.604492,294.107178 429.328430,283.269806 433.233337,272.498077 
	C444.354340,241.820343 455.554840,211.171463 466.700134,180.502518 
	C467.368713,178.662735 468.318207,176.830215 467.553925,174.078506 
	C457.800659,172.419388 447.645813,174.063049 437.855957,173.209091 
	C436.906189,171.360840 437.813568,170.232758 438.349518,169.072327 
	C450.429810,142.915070 462.146973,116.581230 474.726746,90.666153 
	C485.816528,67.820496 504.518066,55.809647 530.144104,55.638195 
	C560.136658,55.437527 590.131653,55.533878 620.125244,55.623890 
	C624.556152,55.637184 629.063599,54.108597 633.732971,56.072853 
	C633.971680,60.578094 632.387024,64.793114 631.476624,69.109734 
	C629.864197,76.755066 628.022583,84.362328 626.738098,92.062454 
	C626.045593,96.213966 624.245789,97.446823 620.119812,97.420723 
	C594.126221,97.256256 568.130127,97.476372 542.136780,97.289894 
	C530.851379,97.208939 523.022766,101.803101 518.625244,112.289597 
	C516.126892,118.247284 513.347046,124.086945 510.112061,131.272217 
	C522.883423,131.272217 534.658997,131.272217 546.216125,131.272217 
	C546.950806,134.531616 545.172546,135.664291 544.170593,137.060913 
	C505.328766,191.206085 466.465637,245.336029 427.522095,299.408020 
	C425.974640,301.556610 425.415619,304.757538 421.971466,305.167755 
z"/>
<path fill="#000000" opacity="1.000000" stroke="none" 
	d="
M866.953186,55.586067 
	C871.863831,55.585300 876.283447,55.585300 881.394897,55.585300 
	C879.108032,66.499428 877.208496,76.583717 874.850525,86.559631 
	C871.928406,98.922356 875.089722,97.209778 861.201294,97.305313 
	C848.044067,97.395821 834.879333,97.563492 821.731140,97.209053 
	C816.805237,97.076256 815.183350,98.971092 814.226990,103.466125 
	C805.754089,143.290436 797.025391,183.060287 788.543579,222.882736 
	C787.774780,226.492020 786.402710,228.010040 782.673157,227.976807 
	C769.350037,227.858063 756.024780,227.907822 742.700928,227.987732 
	C738.873535,228.010681 737.395996,227.061737 738.359863,222.682617 
	C746.323669,186.501160 754.067444,150.271164 761.820801,114.043678 
	C762.482971,110.949631 764.055176,109.238464 767.132690,108.229950 
	C775.938660,105.344223 784.639893,102.138603 793.382263,99.058769 
	C793.320618,98.587440 793.258911,98.116112 793.197205,97.644783 
	C765.237488,97.644783 737.277771,97.644783 709.662354,97.644783 
	C707.519653,93.813950 709.351501,90.962135 709.871643,88.185020 
	C711.645020,78.717422 713.874512,69.336227 715.758423,59.887859 
	C716.434998,56.494957 718.033447,55.450462 721.559570,55.460854 
	C769.860168,55.603195 818.161194,55.573917 866.953186,55.586067 
z"/>
<path fill="#000000" opacity="1.000000" stroke="none" 
	d="
M213.372330,284.316711 
	C238.531693,269.563507 263.408203,255.049576 288.199280,240.391159 
	C292.479553,237.860336 296.745270,236.568542 301.816650,236.591064 
	C337.283661,236.748642 372.751831,236.631668 408.219604,236.657761 
	C410.631104,236.659531 413.159851,236.115311 415.438477,237.331253 
	C415.911896,239.084656 414.679596,239.893143 413.818024,240.830032 
	C398.830902,257.126709 383.798645,273.382080 368.866333,289.728760 
	C366.678223,292.124176 364.340088,293.225555 361.050537,293.221680 
	C309.930420,293.161224 258.810150,293.202179 207.689926,293.187561 
	C205.933807,293.187073 204.018784,293.593079 202.037827,291.733398 
	C205.187500,288.379395 209.520691,286.992249 213.372330,284.316711 
z"/>
<path fill="#000000" opacity="1.000000" stroke="none" 
	d="
M616.964844,224.242661 
	C623.583191,193.775040 630.192078,163.740448 636.569702,133.656815 
	C637.505920,129.240707 639.400879,126.328217 643.373718,124.024269 
	C658.936768,114.998955 674.309387,105.645447 689.755859,96.418945 
	C691.162231,95.578880 692.415405,94.355797 694.306458,94.520218 
	C695.821960,95.774376 694.872375,97.225883 694.573975,98.595299 
	C685.510376,140.193100 676.391968,181.779083 667.446411,223.402237 
	C666.688293,226.929626 665.103516,228.079254 661.721802,228.052887 
	C648.390930,227.948914 635.058533,228.042175 621.727661,227.935699 
	C619.599487,227.918716 616.648499,228.461685 616.964844,224.242661 
z"/>
<path fill="#000000" opacity="1.000000" stroke="none" 
	d="
M560.615845,131.723480 
	C574.871033,131.681839 588.690552,131.681839 602.207092,131.681839 
	C603.833252,133.256256 603.363159,134.801834 603.068359,136.211761 
	C600.787659,147.118546 598.396912,158.002487 596.152710,168.916641 
	C595.531677,171.937363 594.283691,173.473755 590.861938,173.450409 
	C571.862915,173.320847 552.862427,173.396988 533.862488,173.374146 
	C532.748291,173.372803 531.509705,173.594315 530.603394,172.522430 
	C530.180603,171.030167 531.176270,170.004349 531.926636,168.958862 
	C539.990234,157.724289 548.067749,146.499573 556.187012,135.305237 
	C557.236084,133.858856 558.116150,132.113892 560.615845,131.723480 
z"/>
<path fill="#000000" opacity="1.000000" stroke="none" 
	d="
M649.135864,75.314941 
	C650.287964,70.041496 651.624451,65.208969 652.243103,60.286213 
	C652.799927,55.856144 655.225830,54.988220 659.059814,55.087330 
	C669.200317,55.349464 679.345337,55.463406 689.489319,55.543568 
	C692.809875,55.569809 696.132263,55.225105 699.454529,55.209728 
	C702.052856,55.197708 703.455505,56.126415 702.704590,59.222057 
	C701.178955,65.511047 699.899292,71.861771 698.624756,78.208443 
	C698.203003,80.308464 697.262512,81.857262 695.408203,82.964897 
	C678.131958,93.284622 660.876465,103.639023 643.594910,113.949829 
	C643.091064,114.250473 642.366516,114.181343 640.896851,114.425568 
	C643.668884,101.196213 646.338318,88.456390 649.135864,75.314941 
z"/>
<path fill="#000000" opacity="1.000000" stroke="none" 
	d="
M531.233765,273.398529 
	C533.147583,262.501404 535.007446,252.031586 536.694580,241.534012 
	C537.220642,238.260941 538.911499,237.042496 542.102539,237.073685 
	C550.928711,237.160004 559.756592,237.064819 568.583069,237.137009 
	C570.660522,237.153976 573.654541,236.913437 573.064575,240.164261 
	C572.520325,243.162796 573.994263,247.911758 568.537415,248.113617 
	C563.381287,248.304352 558.203796,248.362045 553.053223,248.114731 
	C549.159302,247.927750 547.361694,249.260269 546.831665,253.268799 
	C545.374573,264.288300 542.653748,263.828949 555.317993,263.845215 
	C556.483826,263.846710 557.691223,263.646362 558.807007,263.881989 
	C561.285767,264.405396 565.362793,262.000000 565.337769,267.365417 
	C565.311096,273.074860 563.890076,274.782990 558.649414,274.892548 
	C554.820251,274.972656 550.988525,274.961365 547.158203,274.944305 
	C544.174133,274.931000 542.188599,276.163666 542.428284,279.334290 
	C542.667175,282.494537 545.270996,281.390625 547.090393,281.405487 
	C553.237244,281.455750 559.384827,281.424622 565.368835,281.424622 
	C567.568115,289.470520 565.600769,292.247650 558.232910,292.249817 
	C549.738892,292.252350 541.242920,292.130371 532.751770,292.283203 
	C529.172607,292.347626 527.916748,291.095032 528.647339,287.550903 
	C529.586243,282.996429 530.301514,278.395844 531.233765,273.398529 
z"/>
<path fill="#000000" opacity="1.000000" stroke="none" 
	d="
M758.672363,273.731049 
	C766.231995,261.277557 773.610046,249.140198 780.988098,237.002838 
	C781.603638,237.068741 782.219116,237.134644 782.834656,237.200531 
	C787.653809,255.124573 792.473022,273.048584 797.277527,290.918152 
	C790.361084,293.434845 787.914551,292.756714 783.974121,287.659882 
	C783.771606,287.397949 783.594482,287.098907 783.342468,286.895294 
	C780.360107,284.486145 763.825256,286.417175 761.525818,289.519012 
	C758.033447,294.229980 753.510132,291.543121 747.764954,292.150848 
	C751.828979,285.291351 755.159851,279.669281 758.672363,273.731049 
M778.863342,266.929779 
	C778.407532,265.806427 778.668884,264.321777 777.085510,263.538330 
	C774.821167,267.289520 772.115540,270.732849 770.861450,275.277893 
	C774.254089,275.919830 777.238159,276.330139 780.259521,274.986572 
	C780.522034,272.297638 779.650452,269.981628 778.863342,266.929779 
z"/>
<path fill="#000000" opacity="1.000000" stroke="none" 
	d="
M616.047241,242.009628 
	C617.925964,246.914459 613.253418,247.368408 611.336182,249.599884 
	C609.713501,251.488510 608.163513,250.156525 606.577576,249.061874 
	C603.781677,247.131989 600.510071,245.982468 598.156921,249.252365 
	C595.671265,252.706360 598.263733,255.121109 601.006348,257.040070 
	C603.187805,258.566467 605.503235,259.900909 607.692871,261.416290 
	C615.894043,267.091949 618.591003,274.373810 615.545410,282.467804 
	C612.983398,289.276733 605.028076,293.557770 596.243042,292.827911 
	C590.077271,292.315704 584.478760,290.358612 580.168762,285.757172 
	C578.624390,284.108307 575.665649,281.800354 579.144043,279.725433 
	C581.832214,278.121918 584.281006,272.672729 588.579468,277.726440 
	C591.124634,280.718811 594.388977,282.088165 598.320190,281.808075 
	C600.774353,281.633240 602.966431,280.907288 603.959290,278.407776 
	C605.051392,275.658539 603.262390,273.955383 601.375366,272.535522 
	C598.185059,270.135010 594.740845,268.062134 591.627319,265.571533 
	C586.579224,261.533325 584.136047,256.171692 585.252563,249.715271 
	C587.246643,238.183075 601.749329,232.733521 612.641968,239.305069 
	C613.772095,239.986893 614.748901,240.923050 616.047241,242.009628 
z"/>
<path fill="#000000" opacity="1.000000" stroke="none" 
	d="
M521.213684,247.696838 
	C515.846802,248.008743 510.847137,248.397339 505.885742,248.114716 
	C501.009857,247.836960 498.351990,249.254898 498.076569,254.538483 
	C497.915680,257.624908 496.767548,260.655487 497.076691,264.085175 
	C503.496155,265.632294 510.072388,263.624298 516.229858,265.251190 
	C517.131165,267.338959 516.265198,269.104034 516.114258,270.880920 
	C515.828979,274.237671 514.243958,275.806793 510.571045,275.484100 
	C506.608215,275.135864 502.585297,275.536224 498.600281,275.354431 
	C495.436523,275.210114 494.045929,276.790192 493.529724,279.609070 
	C493.170959,281.568085 492.771454,283.520264 492.446503,285.484802 
	C491.293732,292.454315 491.205688,292.370789 484.294830,292.312347 
	C480.479492,292.280090 479.275482,290.901550 479.951691,287.172211 
	C482.675140,272.152008 485.246216,257.104248 487.917938,242.074570 
	C488.358917,239.593933 488.846527,237.116089 492.325165,237.145264 
	C501.972198,237.226135 511.620239,237.185333 521.267578,237.239334 
	C521.885254,237.242783 522.500610,237.643921 523.293823,237.922043 
	C523.602173,241.304077 523.549072,244.539490 521.213684,247.696838 
z"/>
<path fill="#000000" opacity="1.000000" stroke="none" 
	d="
M732.579285,259.590576 
	C735.784668,253.917618 738.817932,248.563004 741.881165,243.225540 
	C745.704712,236.563095 749.046753,235.459518 757.382874,238.592361 
	C746.810974,256.620514 736.309509,274.528442 725.808105,292.436401 
	C725.223022,292.349121 724.637939,292.261810 724.052856,292.174530 
	C718.131042,274.548309 713.810059,256.444489 708.480286,238.501724 
	C711.808960,236.614044 714.962341,237.077789 718.051453,237.284393 
	C720.266541,237.432526 720.923279,239.014740 721.424255,240.971436 
	C723.517090,249.145782 725.758606,257.282074 728.085266,265.952667 
	C730.764038,264.477295 731.115784,261.824829 732.579285,259.590576 
z"/>
<path fill="#000000" opacity="1.000000" stroke="none" 
	d="
M651.009888,271.759888 
	C650.009277,277.425659 649.154175,282.677795 648.198059,287.911469 
	C647.413513,292.205933 645.260132,293.075287 638.844055,292.174255 
	C634.445618,291.556580 635.861572,288.663055 636.298950,286.147491 
	C638.262878,274.850464 640.182495,263.544708 642.292175,252.274704 
	C642.835938,249.369934 641.992310,248.177795 639.110657,248.209778 
	C635.817078,248.246307 632.522766,248.218216 629.393372,248.218216 
	C627.547852,239.406006 629.268982,237.104065 637.068359,237.089935 
	C646.897400,237.072144 656.726624,237.021393 666.555237,237.080276 
	C668.742065,237.093369 671.839722,236.514740 671.291077,240.302307 
	C670.836121,243.443344 672.002075,247.828110 666.643494,248.178925 
	C666.311401,248.200668 665.977417,248.195602 665.644287,248.197189 
	C653.973877,248.252808 655.647766,246.216461 653.300354,259.073517 
	C652.554504,263.158783 651.840393,267.249817 651.009888,271.759888 
z"/>
<path fill="#000000" opacity="1.000000" stroke="none" 
	d="
M811.787781,276.039001 
	C813.797974,264.658508 815.765747,253.708801 817.703674,242.753784 
	C818.504089,238.228928 825.006348,235.309036 829.015015,237.716385 
	C830.918091,238.859207 830.241943,240.629974 829.966797,242.194641 
	C827.953979,253.640457 826.016968,265.102570 823.759094,276.500702 
	C822.991089,280.377686 824.132385,281.753326 827.930115,281.658295 
	C832.588684,281.541656 837.253357,281.601868 841.914062,281.673431 
	C843.820862,281.702728 846.562500,281.295593 846.091309,284.351440 
	C845.658081,287.160675 846.821960,291.778534 842.455322,291.983948 
	C832.490967,292.452728 822.487732,292.186096 812.502258,292.058868 
	C809.249084,292.017456 809.550720,289.407715 809.853577,287.263031 
	C810.364075,283.648193 811.095032,280.064453 811.787781,276.039001 
z"/>
<path fill="#000000" opacity="1.000000" stroke="none" 
	d="
M676.855286,280.109528 
	C679.175171,267.129364 681.432739,254.574478 683.658630,242.013962 
	C683.977112,240.216629 683.917297,237.984680 686.266724,237.784561 
	C689.338135,237.522949 692.570007,236.250839 695.506042,238.112732 
	C696.590454,238.800385 696.143677,240.237976 695.943604,241.374359 
	C693.271057,256.551270 690.627380,271.733459 687.887817,286.898315 
	C687.034790,291.620392 680.671936,294.296570 676.484985,291.877716 
	C675.215576,291.144379 675.230957,290.085846 675.433044,288.878479 
	C675.898193,286.099213 676.334656,283.315125 676.855286,280.109528 
z"/>
</svg>