<?xml version="1.0" standalone="no"?>
<!DOCTYPE svg PUBLIC "-//W3C//DTD SVG 20010904//EN"
 "http://www.w3.org/TR/2001/REC-SVG-20010904/DTD/svg10.dtd">
<svg version="1.0" xmlns="http://www.w3.org/2000/svg"
 width="600.000000pt" height="211.000000pt" viewBox="0 0 600.000000 211.000000"
 preserveAspectRatio="xMidYMid meet">
<g transform="translate(0.000000,211.000000) scale(0.100000,-0.100000)"
fill="#000000" stroke="none">
<path d="M3030 1781 c-55 -11 -121 -45 -168 -86 -35 -31 -59 -69 -117 -189
-103 -215 -185 -392 -185 -401 0 -11 179 -4 186 7 4 6 2 14 -4 16 -7 2 -9 9
-6 15 5 8 2 8 -7 0 -16 -16 -129 -18 -129 -2 0 5 5 7 11 3 7 -4 10 -1 7 7 -3
8 6 34 19 58 12 24 23 50 23 58 0 8 5 11 12 7 7 -5 9 -2 5 8 -3 9 1 24 9 35 9
10 13 13 10 7 -3 -6 1 -11 9 -11 13 0 13 3 0 17 -14 15 -14 18 0 30 8 7 15 18
15 25 0 7 7 18 15 25 9 7 14 19 11 27 -3 7 -1 13 4 13 5 0 7 8 3 18 -3 9 -3
14 2 10 10 -9 35 10 35 26 0 6 -5 4 -11 -4 -9 -12 -10 -12 -5 3 3 10 6 21 6
23 0 3 4 2 10 -1 6 -3 7 1 4 9 -3 9 -2 16 3 16 5 0 9 9 10 20 2 24 40 80 54
80 6 0 7 -6 3 -12 -4 -7 -3 -9 1 -5 14 12 15 38 2 31 -19 -11 4 9 47 41 22 16
36 24 33 18 -4 -6 11 -3 32 8 41 19 67 26 43 10 -11 -7 -10 -9 3 -14 9 -4 13
-3 10 3 -3 5 2 13 12 18 20 11 464 15 560 6 l63 -6 -6 -32 c-3 -17 -7 -38 -9
-46 -2 -8 -4 -23 -4 -33 -1 -10 -5 -16 -9 -13 -5 3 -8 -5 -8 -17 1 -22 1 -22
-259 -28 -250 -5 -305 -11 -305 -30 0 -5 -5 -8 -12 -6 -6 1 -20 -15 -30 -36
-12 -24 -23 -35 -31 -31 -6 4 -9 4 -5 -1 4 -4 0 -14 -10 -22 -16 -12 -16 -13
3 -7 l20 6 -20 -19 c-11 -10 -21 -23 -22 -29 -1 -5 -5 -22 -8 -37 -5 -20 -3
-28 9 -33 9 -3 14 -9 11 -13 -2 -4 37 -7 87 -6 80 2 89 0 72 -12 -10 -8 -18
-17 -18 -21 2 -10 -28 -46 -51 -61 -15 -9 -16 -11 -3 -7 15 4 16 2 6 -14 -7
-10 -15 -17 -19 -14 -7 4 -22 -34 -20 -49 1 -5 -3 -6 -9 -2 -6 4 -16 -7 -23
-24 -7 -17 -17 -28 -22 -24 -4 5 -5 3 -1 -4 3 -6 -3 -18 -14 -26 -11 -7 -17
-17 -13 -21 4 -3 -5 -19 -19 -34 -14 -15 -52 -63 -84 -107 -32 -44 -62 -83
-67 -86 -5 -3 -8 -10 -6 -14 2 -9 -66 -98 -101 -133 -14 -13 -25 -27 -25 -30
-1 -4 -5 -17 -9 -30 -6 -18 -11 -21 -21 -12 -11 9 -12 7 -9 -7 3 -10 -6 -31
-19 -47 -16 -20 -24 -24 -24 -13 0 9 4 14 9 11 5 -4 8 0 7 7 -3 19 21 79 31
79 4 0 8 6 7 13 -1 32 4 48 13 42 5 -3 7 0 4 9 -3 8 5 37 19 65 13 28 20 51
14 51 -5 0 -2 11 7 25 9 13 16 31 16 39 0 8 5 16 11 18 5 2 12 15 13 28 2 14
6 32 9 40 3 8 8 28 12 44 5 24 8 27 16 15 7 -10 8 -5 3 15 -5 20 -4 27 4 22 8
-4 10 -2 6 7 -3 8 2 17 10 20 9 4 16 12 16 19 0 9 -3 8 -10 -2 -8 -13 -10 -12
-10 3 0 9 -4 17 -9 17 -11 0 -2 22 -107 -270 -132 -367 -176 -484 -187 -498
-5 -7 -7 -15 -4 -18 3 -3 25 23 48 58 41 59 182 257 482 673 72 99 147 204
169 233 l39 52 -111 0 c-128 0 -123 -7 -66 104 54 106 53 106 366 106 l267 0
23 108 c12 59 25 113 27 120 4 9 -63 12 -318 11 -178 -1 -340 -4 -359 -8z"/>
<path d="M3812 1728 c-12 -67 -44 -215 -57 -260 -6 -25 5 -20 151 68 88 53
163 100 168 104 7 7 34 117 36 143 0 4 -65 7 -144 7 l-143 0 -11 -62z m258 2
c0 -16 -5 -30 -11 -30 -5 0 -8 -4 -4 -10 8 -12 -33 -52 -46 -45 -5 4 -8 1 -7
-6 2 -6 -12 -21 -31 -32 -20 -12 -31 -15 -26 -7 6 9 4 11 -5 5 -10 -6 -12 -4
-6 11 5 14 4 16 -4 8 -9 -9 -9 -18 0 -35 7 -13 9 -21 5 -17 -4 4 -22 0 -39 -9
-17 -10 -34 -16 -37 -15 -4 0 -15 -8 -24 -18 -24 -26 -33 -25 -31 4 1 19 4 22
14 14 10 -9 11 -6 2 16 -7 20 -6 43 4 84 8 31 17 69 20 85 l6 27 110 0 110 0
0 -30z"/>
<path d="M4195 1778 c-6 -21 -45 -208 -45 -219 0 -6 93 -9 275 -7 150 2 271 0
267 -3 -4 -4 -52 -21 -107 -39 -55 -18 -105 -37 -111 -44 -6 -6 -25 -76 -42
-156 -17 -80 -49 -229 -71 -333 -23 -103 -41 -190 -41 -192 0 -3 64 -5 143 -5
l142 0 59 278 c32 152 67 315 78 362 10 47 21 95 23 108 5 22 7 22 173 22
l168 0 19 98 c10 53 22 107 26 120 l9 22 -481 0 c-375 0 -480 -3 -484 -12z
m912 -25 c8 -3 9 -12 3 -27 -4 -13 -10 -44 -13 -69 -8 -74 -15 -77 -179 -77
-164 -1 -176 -5 -182 -70 0 -8 -7 -20 -15 -26 -10 -8 -11 -13 -2 -18 7 -5 8
-13 2 -24 -9 -18 -30 -106 -37 -155 -2 -15 -8 -37 -14 -48 -6 -10 -8 -24 -5
-29 10 -16 -5 -51 -18 -44 -9 5 -9 4 0 -6 7 -8 8 -20 3 -34 -4 -11 -14 -54
-21 -94 -7 -40 -16 -75 -21 -78 -4 -3 -8 0 -8 7 0 7 -3 9 -6 6 -4 -4 -1 -14 6
-23 8 -9 10 -18 4 -22 -5 -4 -9 -18 -9 -32 0 -14 -2 -29 -5 -35 -5 -10 -6 -16
-9 -34 0 -5 -52 -9 -113 -8 -95 2 -112 4 -109 17 2 8 16 78 32 155 16 77 34
148 40 159 8 13 8 16 -1 11 -9 -6 -9 -2 -1 14 7 12 9 27 5 33 -4 7 -3 8 5 4 9
-6 10 0 5 20 -4 15 -3 25 2 21 5 -3 15 6 21 20 10 21 10 23 -3 13 -14 -12 -20
0 -7 14 4 3 8 14 9 24 14 108 23 129 57 143 18 7 40 12 50 11 10 -1 15 3 12 8
-4 7 2 9 18 5 16 -4 30 -1 41 10 9 9 16 13 16 9 0 -4 10 2 23 14 13 12 26 20
29 16 3 -3 9 0 14 7 4 7 3 10 -4 5 -6 -3 -13 3 -17 14 -6 18 -17 19 -246 22
-131 2 -240 0 -242 -4 -1 -4 -10 -1 -20 6 -16 12 -16 16 -2 50 9 20 13 41 9
47 -3 5 0 16 6 24 6 8 9 19 5 25 -3 5 -4 14 -1 19 6 9 870 13 893 4z m-472
-253 c-3 -5 -12 -10 -18 -10 -7 0 -6 4 3 10 19 12 23 12 15 0z"/>
<path d="M1094 1736 c-21 -24 -84 -92 -139 -151 -55 -59 -101 -110 -103 -114
-1 -3 241 -5 538 -3 297 1 540 -1 540 -5 0 -5 -9 -14 -20 -20 -18 -12 -517
-405 -1039 -821 -135 -107 -250 -196 -258 -199 -45 -17 15 -23 239 -23 250 0
252 0 277 23 15 13 175 141 356 284 182 143 517 407 745 588 437 346 563 445
595 469 18 14 -75 15 -836 16 l-856 0 -39 -44z m767 10 c360 -3 709 -2 775 2
92 5 120 4 117 -5 -3 -6 -12 -9 -20 -6 -11 4 -14 2 -9 -5 8 -13 -38 -47 -52
-38 -6 3 -9 -2 -8 -11 0 -8 -12 -24 -29 -33 -16 -10 -29 -23 -27 -29 2 -9 -3
-9 -20 0 -21 11 -22 11 -9 -4 12 -15 11 -17 -8 -17 -11 0 -20 -6 -18 -12 1 -7
-8 -14 -20 -16 -13 -2 -23 -8 -23 -13 0 -6 -5 -7 -12 -3 -6 4 -8 3 -4 -4 6
-11 -30 -42 -49 -42 -5 0 -4 4 3 9 11 7 11 9 -1 14 -16 6 -17 -9 -4 -30 5 -8
3 -13 -7 -13 -8 0 -19 -7 -24 -17 -6 -9 -16 -14 -25 -10 -12 4 -14 2 -10 -10
5 -13 2 -15 -11 -10 -14 5 -17 3 -12 -8 3 -9 0 -15 -8 -15 -7 0 -21 -9 -31
-20 -10 -11 -21 -17 -26 -15 -4 3 -11 0 -15 -6 -4 -8 -3 -9 4 -5 19 12 14 1
-10 -20 -12 -10 -18 -14 -15 -7 4 6 2 15 -4 19 -7 4 -9 3 -5 -4 8 -14 -45 -64
-62 -57 -7 3 -10 0 -7 -5 3 -6 -1 -13 -9 -16 -9 -3 -14 -9 -12 -13 3 -4 -5
-13 -17 -21 -19 -11 -21 -11 -12 1 6 8 3 7 -6 -3 -9 -9 -19 -15 -22 -12 -3 3
-8 -4 -12 -15 -3 -12 -11 -19 -16 -16 -5 3 -29 -14 -53 -39 -40 -42 -55 -51
-78 -47 -5 0 -7 -2 -7 -7 3 -19 -2 -30 -18 -36 -28 -10 -65 -33 -61 -38 5 -8
-59 -58 -66 -51 -3 3 -17 -6 -30 -20 -13 -14 -21 -28 -18 -31 3 -3 -1 -6 -10
-6 -8 0 -25 -11 -38 -25 -13 -14 -30 -25 -37 -25 -8 0 -11 -5 -7 -12 5 -8 2
-9 -9 -5 -9 3 -16 3 -14 -2 2 -8 -63 -71 -74 -71 -4 0 -21 -11 -37 -25 -17
-14 -36 -24 -44 -23 -7 2 -12 -2 -11 -8 1 -6 -17 -26 -40 -45 -23 -18 -48 -41
-55 -51 -7 -10 -19 -18 -27 -18 -8 0 -19 -9 -25 -20 -6 -11 -15 -18 -21 -15
-5 4 -12 -1 -15 -10 -4 -9 -13 -14 -20 -11 -8 3 -13 2 -12 -2 3 -7 -41 -54
-55 -60 -4 -1 -14 -5 -22 -8 -8 -3 -12 -11 -8 -17 3 -6 1 -7 -5 -3 -7 4 -12 3
-12 -1 0 -5 -14 -17 -30 -27 -27 -15 -53 -17 -213 -16 -100 2 -190 3 -199 3
-13 1 -12 6 8 26 21 21 27 23 36 11 8 -13 9 -12 5 2 -3 9 2 22 11 30 11 9 14
10 8 1 -4 -7 -2 -13 3 -13 6 0 11 9 11 20 0 11 7 20 15 20 8 0 15 5 15 11 0 7
10 9 24 7 16 -3 23 -1 20 7 -3 6 16 29 42 51 26 21 55 46 65 56 9 9 20 14 23
11 3 -4 6 2 6 13 0 11 3 15 8 9 8 -12 27 -13 37 -4 3 4 1 10 -6 15 -8 5 -10 3
-4 -7 5 -8 4 -11 -1 -6 -8 8 -9 21 -1 15 1 -2 18 12 37 29 31 29 49 38 72 34
4 0 5 5 2 13 -3 7 2 19 11 26 8 7 15 9 15 4 0 -5 16 8 35 29 18 20 41 37 50
37 9 0 13 4 10 10 -3 6 1 7 10 4 10 -4 15 -2 13 7 -2 8 5 14 14 14 9 0 20 4
25 9 4 5 3 6 -4 2 -6 -3 -15 -1 -19 5 -4 7 -3 9 3 6 6 -4 27 9 48 28 22 19 42
32 47 29 4 -3 8 2 8 11 0 8 10 20 23 25 12 5 39 25 60 44 21 20 47 36 58 36
10 0 19 4 19 8 0 5 7 17 16 28 8 10 12 12 8 4 -4 -8 9 1 28 20 50 50 75 69 82
63 3 -4 6 1 6 9 0 9 14 21 30 27 17 5 30 14 30 20 0 5 9 13 20 16 12 4 17 11
13 18 -5 8 -2 8 9 0 18 -15 29 -7 21 15 -4 10 -2 13 5 8 7 -4 12 -3 12 1 0 5
25 28 55 51 58 46 69 74 35 92 -14 8 -176 10 -524 8 -277 -2 -502 0 -499 4 2
5 13 13 25 19 16 9 19 8 13 -3 -5 -7 -4 -10 1 -5 5 5 10 13 10 18 1 5 2 14 3
20 0 5 5 8 9 5 10 -6 58 54 54 67 -1 4 2 7 7 7 13 0 70 61 76 81 9 26 61 45
80 29 13 -11 14 -10 9 5 -5 11 -4 16 3 12 5 -3 304 -8 664 -11z m199 -560 c0
-2 -7 -7 -16 -10 -8 -3 -12 -2 -9 4 6 10 25 14 25 6z"/>
<path d="M1119 1713 c-13 -16 -12 -17 3 -5 9 8 23 10 29 6 8 -4 9 -3 5 4 -10
17 -21 15 -37 -5z"/>
<path d="M1079 1663 c-13 -16 -12 -17 4 -4 9 7 17 15 17 17 0 8 -8 3 -21 -13z"/>
<path d="M1091 1647 c-8 -10 -7 -14 2 -14 8 0 14 6 14 14 0 7 -1 13 -2 13 -2
0 -8 -6 -14 -13z"/>
<path d="M2500 1595 c0 -8 2 -15 4 -15 2 0 6 7 10 15 3 8 1 15 -4 15 -6 0 -10
-7 -10 -15z"/>
<path d="M1007 1575 c-4 -8 -3 -16 1 -19 4 -3 9 4 9 15 2 23 -3 25 -10 4z"/>
<path d="M1962 1450 c0 -14 2 -19 5 -12 2 6 2 18 0 25 -3 6 -5 1 -5 -13z"/>
<path d="M2090 1306 c0 -2 8 -10 18 -17 15 -13 16 -12 3 4 -13 16 -21 21 -21
13z"/>
<path d="M1660 1201 c0 -6 4 -13 10 -16 6 -3 7 1 4 9 -7 18 -14 21 -14 7z"/>
<path d="M1656 1162 c-3 -5 1 -9 9 -9 8 0 12 4 9 9 -3 4 -7 8 -9 8 -2 0 -6 -4
-9 -8z"/>
<path d="M1530 1096 c0 -2 11 -6 25 -8 13 -3 22 -1 19 3 -5 9 -44 13 -44 5z"/>
<path d="M1705 980 c-3 -6 1 -7 9 -4 18 7 21 14 7 14 -6 0 -13 -4 -16 -10z"/>
<path d="M1343 948 c-13 -22 -13 -42 0 -29 10 10 19 41 12 41 -2 0 -7 -6 -12
-12z"/>
<path d="M1225 862 c-5 -4 -17 -16 -25 -27 -11 -15 -7 -14 13 4 24 22 32 31
25 31 -2 0 -7 -4 -13 -8z"/>
<path d="M1264 862 c3 -5 0 -13 -6 -15 -9 -4 -10 -6 -1 -6 17 -1 25 16 12 25
-7 4 -9 3 -5 -4z"/>
<path d="M1560 821 c-8 -6 -17 -8 -20 -6 -4 2 -7 -2 -7 -10 0 -11 5 -10 24 2
13 8 23 17 23 19 0 6 -3 5 -20 -5z"/>
<path d="M1285 611 c-3 -5 -2 -12 3 -15 5 -3 9 1 9 9 0 17 -3 19 -12 6z"/>
<path d="M1135 500 c-3 -6 1 -7 9 -4 18 7 21 14 7 14 -6 0 -13 -4 -16 -10z"/>
<path d="M2783 1693 c4 -3 1 -13 -6 -22 -11 -14 -10 -14 5 -2 16 12 16 31 1
31 -4 0 -3 -3 0 -7z"/>
<path d="M899 1613 c-13 -16 -12 -17 4 -4 9 7 17 15 17 17 0 8 -8 3 -21 -13z"/>
<path d="M3893 1462 c-117 -70 -163 -102 -163 -116 0 -10 -4 -35 -10 -55 -9
-35 -110 -498 -110 -507 0 -2 64 -4 143 -4 l142 0 44 203 c24 111 62 283 83
382 22 98 42 183 44 187 12 19 -20 2 -173 -90z m120 -14 c-20 -86 -32 -145
-43 -198 -4 -25 -13 -56 -18 -70 -5 -14 -7 -31 -5 -37 3 -7 1 -13 -4 -13 -4 0
-9 -10 -10 -22 -1 -25 -4 -39 -27 -148 -23 -111 -38 -153 -48 -138 -5 9 -8 9
-8 1 0 -8 -33 -11 -107 -11 -60 0 -102 2 -95 5 6 3 10 9 7 13 -9 15 7 90 18
83 6 -4 8 0 5 9 -3 8 4 60 16 116 18 85 24 100 35 90 11 -11 12 -9 2 9 -14 27
-14 63 -1 63 5 0 10 10 9 23 0 30 8 74 16 87 4 6 16 8 28 5 l22 -6 -21 13
c-12 7 -19 19 -17 26 3 6 8 10 12 7 5 -2 23 9 41 25 37 33 44 37 35 18 -3 -7
2 -3 11 10 9 12 21 22 26 22 6 0 4 -8 -3 -17 -7 -10 4 -1 24 20 21 20 44 37
52 37 8 0 15 5 15 10 0 9 10 15 47 29 1 1 -5 -27 -14 -61z"/>
<path d="M3851 874 c0 -11 3 -14 6 -6 3 7 2 16 -1 19 -3 4 -6 -2 -5 -13z"/>
<path d="M800 1536 c0 -2 8 -10 18 -17 15 -13 16 -12 3 4 -13 16 -21 21 -21
13z"/>
<path d="M2385 1341 c-3 -5 -2 -12 3 -15 5 -3 9 1 9 9 0 17 -3 19 -12 6z"/>
<path d="M3193 1233 c-43 -60 -81 -109 -85 -111 -5 -2 -8 -8 -8 -13 0 -5 81
-9 189 -9 l188 0 23 108 c12 59 25 113 27 120 4 9 -25 12 -125 12 l-131 0 -78
-107z m292 55 c-5 -21 -11 -58 -14 -98 -1 -13 -2 -13 -11 0 -13 21 -13 3 1
-22 9 -16 8 -19 -2 -13 -9 6 -11 3 -6 -8 6 -15 -8 -17 -148 -17 l-154 0 24 26
c14 15 22 30 20 34 -3 5 7 19 22 32 16 13 29 31 31 39 10 41 32 49 139 49 102
0 103 0 98 -22z"/>
<path d="M2976 1138 c3 -5 10 -6 15 -3 13 9 11 12 -6 12 -8 0 -12 -4 -9 -9z"/>
<path d="M1729 853 c-13 -16 -12 -17 4 -4 9 7 17 15 17 17 0 8 -8 3 -21 -13z"/>
<path d="M2463 725 c0 -8 4 -12 9 -9 5 3 6 10 3 15 -9 13 -12 11 -12 -6z"/>
<path d="M1703 714 c-10 -6 -85 -51 -168 -99 -82 -48 -167 -98 -187 -111 -21
-13 -39 -24 -42 -24 -2 0 -35 -18 -72 -40 l-69 -40 485 0 485 1 102 112 c57
62 123 134 148 161 25 26 45 49 45 50 0 0 -159 1 -354 1 -242 0 -360 -4 -373
-11z m642 -34 c-1 -8 -9 -14 -16 -12 -8 2 -11 0 -7 -4 9 -9 -31 -66 -42 -59
-4 3 -10 -4 -13 -15 -3 -11 -13 -20 -22 -20 -11 0 -15 -5 -12 -14 4 -10 1 -13
-9 -9 -10 3 -12 0 -9 -10 7 -16 -20 -31 -38 -20 -7 4 -6 -1 2 -10 12 -16 12
-17 -5 -10 -17 6 -18 5 -4 -12 8 -10 10 -16 4 -12 -6 3 -22 -5 -34 -18 l-23
-25 -384 0 c-288 0 -382 3 -377 12 5 7 3 8 -7 2 -23 -14 -51 -15 -46 -2 2 7
10 12 16 10 6 -1 11 2 11 8 0 6 3 9 8 8 4 -1 26 10 49 26 25 17 47 25 55 20 7
-4 10 -4 6 1 -4 4 -3 14 3 21 9 11 16 11 33 2 19 -10 20 -10 7 6 -13 16 -13
17 5 14 11 -2 18 2 17 10 -2 6 1 12 6 12 5 0 32 16 61 35 29 19 55 33 60 30 4
-2 15 4 25 15 10 11 21 17 25 15 4 -3 12 1 18 8 8 9 87 12 325 12 274 0 314
-2 312 -15z"/>
<path d="M1666 643 c-6 -14 -5 -15 5 -6 7 7 10 15 7 18 -3 3 -9 -2 -12 -12z"/>
<path d="M1620 630 c-9 -6 -10 -10 -3 -10 6 0 15 5 18 10 8 12 4 12 -15 0z"/>
<path d="M1460 531 c0 -6 4 -13 10 -16 6 -3 7 1 4 9 -7 18 -14 21 -14 7z"/>
<path d="M2860 713 c0 -5 -11 -69 -25 -143 -14 -74 -25 -141 -25 -147 0 -8 13
-13 30 -13 26 0 30 4 35 38 11 62 9 61 73 57 55 -4 60 -2 66 18 3 12 6 25 6
30 0 4 -28 7 -61 7 l-61 0 6 31 c3 17 6 43 6 56 0 24 1 25 70 21 70 -3 79 2
80 45 0 4 -45 7 -100 7 -55 0 -100 -3 -100 -7z m19 -162 c8 -14 6 -22 -8 -35
-18 -16 -19 -16 -17 7 0 14 5 23 10 19 5 -3 7 2 3 11 -9 23 0 21 12 -2z"/>
<path d="M3121 573 c-13 -82 -26 -152 -28 -158 -2 -6 36 -9 107 -7 109 3 110
3 110 28 0 23 -2 24 -76 24 -65 0 -75 2 -70 16 3 9 6 20 6 25 0 5 29 9 65 9
49 0 65 3 65 14 0 8 3 21 6 29 4 12 -5 14 -62 9 l-67 -5 7 28 c4 15 10 41 13
57 l6 29 70 -2 c70 -2 71 -2 74 24 l4 27 -103 0 -103 0 -24 -147z m79 124 c0
-2 -9 -14 -20 -27 -11 -13 -20 -18 -20 -12 0 6 7 18 16 26 15 15 24 20 24 13z
m-49 -130 c-10 -9 -11 -8 -5 6 3 10 9 15 12 12 3 -3 0 -11 -7 -18z m5 -49
c-15 -21 -16 -22 -16 -2 0 11 6 26 12 32 19 19 22 -4 4 -30z m-2 -65 c17 -21
18 -23 2 -23 -11 0 -14 5 -10 12 5 7 2 9 -8 5 -12 -4 -14 -1 -11 14 3 11 6 18
7 17 1 -2 10 -13 20 -25z"/>
<path d="M3455 703 c-49 -49 -34 -112 39 -162 47 -33 55 -48 34 -69 -18 -18
-52 -15 -81 8 -24 19 -26 19 -48 2 -28 -24 -19 -39 38 -64 52 -23 97 -19 137
13 21 16 26 29 26 63 0 44 -20 70 -82 109 -52 32 -26 83 29 58 21 -10 29 -9
45 6 19 17 19 18 -2 35 -29 24 -112 24 -135 1z m9 -56 c-2 -7 12 -33 33 -57
20 -25 26 -35 12 -22 -14 12 -29 19 -34 15 -4 -5 -5 -3 -2 4 4 6 0 19 -9 27
-14 14 -14 46 0 46 3 0 3 -6 0 -13z m106 -112 c0 -12 -19 -12 -23 0 -4 9 -1
12 9 8 7 -3 14 -7 14 -8z m7 -42 c-1 -14 -8 -28 -16 -31 -10 -3 -11 0 -5 9 9
14 10 19 13 39 3 23 10 8 8 -17z m-17 -47 c0 -2 -7 -7 -16 -10 -8 -3 -12 -2
-9 4 6 10 25 14 25 6z"/>
<path d="M3680 692 c0 -26 2 -27 46 -23 41 3 45 1 41 -15 -3 -11 -13 -59 -22
-109 -8 -49 -18 -101 -21 -116 -4 -23 -3 -25 29 -21 l33 4 18 106 c28 166 22
154 72 150 40 -3 43 -1 46 24 l5 28 -124 0 -123 0 0 -28z m134 -1 c3 -4 -2
-17 -10 -27 -9 -10 -13 -13 -9 -6 3 6 1 12 -4 12 -6 0 -11 7 -11 15 0 16 25
21 34 6z"/>
<path d="M4000 693 c-1 -16 -11 -84 -24 -153 -13 -69 -22 -128 -20 -131 2 -3
16 -4 32 -1 29 4 29 4 51 130 13 70 25 139 28 155 5 25 3 27 -31 27 -33 0 -36
-3 -36 -27z m33 -23 c-3 -12 -8 -19 -11 -16 -5 6 5 36 12 36 2 0 2 -9 -1 -20z"/>
<path d="M4150 714 c0 -6 51 -184 72 -254 6 -19 13 -42 15 -50 2 -9 12 0 27
25 12 22 54 95 94 163 l71 122 -34 0 c-32 0 -36 -4 -81 -85 -26 -50 -47 -102
-49 -123 -1 -20 -6 -35 -11 -32 -5 3 -7 24 -6 47 2 24 -4 77 -14 118 -18 75
-18 75 -51 75 -18 0 -33 -3 -33 -6z m78 -149 c-3 -3 -9 2 -12 12 -6 14 -5 15
5 6 7 -7 10 -15 7 -18z"/>
<path d="M4557 698 c-34 -54 -177 -291 -177 -294 0 -10 67 11 77 23 7 10 33
15 72 16 52 2 61 -1 65 -18 4 -15 13 -20 36 -20 16 0 30 3 30 7 0 13 -79 300
-84 305 -2 3 -11 -6 -19 -19z m16 -65 c2 -10 8 -27 12 -38 5 -16 3 -15 -7 3
-8 12 -17 20 -20 17 -3 -4 -9 -2 -13 4 -3 6 -1 11 5 11 6 0 8 5 5 10 -3 6 -2
10 3 10 5 0 12 -8 15 -17z m0 -119 c7 -19 3 -21 -37 -21 l-45 0 19 27 c11 15
25 40 31 56 l12 29 7 -35 c4 -19 10 -44 13 -56z m35 -22 c-2 -10 3 -23 12 -30
12 -10 13 -12 0 -10 -25 5 -39 22 -28 35 5 7 6 18 2 24 -4 8 -3 9 5 5 7 -4 11
-15 9 -24z m-134 3 c-4 -10 0 -15 12 -16 15 0 14 -2 -5 -10 -30 -12 -36 -6
-21 20 12 24 22 28 14 6z"/>
<path d="M4771 588 c-13 -73 -25 -144 -28 -158 l-5 -25 106 3 c105 3 106 4
106 28 0 23 -2 24 -70 24 -68 0 -70 1 -65 23 2 12 12 63 20 112 9 50 19 98 21
108 4 14 -1 17 -29 17 l-34 0 -22 -132z m22 -93 c-3 -9 -8 -14 -10 -11 -3 3
-2 9 2 15 9 16 15 13 8 -4z m9 -49 c7 4 8 2 4 -4 -11 -18 -26 -14 -25 6 0 10
3 12 6 4 2 -6 10 -9 15 -6z"/>
<path d="M1127 369 c7 -7 15 -10 18 -7 3 3 -2 9 -12 12 -14 6 -15 5 -6 -5z"/>
</g>
</svg>
